<svg width="0" height="0">
  <symbol xmlns="http://www.w3.org/2000/svg" viewBox="0 0 146 24" id="logo">
    <g fill="none" fill-rule="evenodd">
      <path fill="var(--logo-color, #242D52)" fill-rule="nonzero" d="M40.014 16.809V8.553c0-1.577.366-2.82 1.098-3.73.733-.91 1.65-1.365 2.75-1.365 2.158 0 3.237 1.577 3.237 4.731v8.62h3.782v-9.58c0-2.415-.5-4.22-1.503-5.417C48.376.615 46.945.017 45.084.017c-1.222 0-2.34.234-3.352.703a6.833 6.833 0 00-2.56 2.043h-.066C38.126.932 36.486.017 34.184.017c-.969 0-1.902.217-2.799.653a6.976 6.976 0 00-2.353 1.878h-.05V.265H25.2v16.527h3.782V8.553c0-1.577.372-2.82 1.115-3.73.743-.91 1.693-1.365 2.849-1.365 2.19 0 3.286 1.577 3.286 4.731v8.62h3.782zm21.101.248c2.246 0 3.997-.827 5.252-2.482h.05v2.217h3.616V.265h-3.782V2.25h-.066C64.93.761 63.23.017 61.082.017a7.76 7.76 0 00-5.681 2.415c-.705.75-1.26 1.66-1.668 2.73a9.589 9.589 0 00-.611 3.44c0 1.258.203 2.416.61 3.475.408 1.059.964 1.952 1.669 2.68a7.348 7.348 0 002.535 1.696 8.325 8.325 0 003.18.604zm.595-3.441c-1.399 0-2.538-.466-3.419-1.398-.88-.932-1.321-2.132-1.321-3.599 0-1.555.454-2.804 1.362-3.747.909-.943 2.04-1.414 3.394-1.414 1.343 0 2.458.493 3.345 1.48.886.988 1.33 2.215 1.33 3.681 0 1.467-.455 2.667-1.363 3.599-.909.932-2.018 1.398-3.328 1.398zm27.112 3.193V7.064c0-2.393-.536-4.166-1.61-5.319C86.14.593 84.655.017 82.762.017a7.373 7.373 0 00-3.056.645 6.958 6.958 0 00-2.477 1.87h-.05V.264h-3.782v16.527h3.782V8.487c0-1.588.388-2.823 1.164-3.706.777-.882 1.814-1.323 3.113-1.323.595 0 1.104.077 1.528.231.424.155.796.406 1.115.753.32.348.556.819.71 1.415.154.595.231 1.323.231 2.183v8.769h3.782zm10.218.248c2.246 0 3.996-.827 5.252-2.482h.05v2.217h3.616V.265h-3.782V2.25h-.066C102.855.761 101.154.017 99.007.017a7.76 7.76 0 00-5.682 2.415c-.704.75-1.26 1.66-1.668 2.73a9.589 9.589 0 00-.61 3.44c0 1.258.203 2.416.61 3.475.408 1.059.964 1.952 1.668 2.68a7.348 7.348 0 002.536 1.696 8.325 8.325 0 003.179.604zm.594-3.441c-1.398 0-2.538-.466-3.418-1.398-.881-.932-1.322-2.132-1.322-3.599 0-1.555.455-2.804 1.363-3.747.908-.943 2.04-1.414 3.394-1.414 1.343 0 2.458.493 3.344 1.48.886.988 1.33 2.215 1.33 3.681 0 1.467-.455 2.667-1.363 3.599-.908.932-2.018 1.398-3.328 1.398zm19.07 10.125c1.2 0 2.274-.14 3.22-.422.947-.281 1.743-.673 2.387-1.175a6.385 6.385 0 001.602-1.844 8.14 8.14 0 00.916-2.383c.188-.86.281-1.803.281-2.829V.265h-3.782v1.737h-.066a7.059 7.059 0 00-2.353-1.49A7.62 7.62 0 00118.142 0c-1.508 0-2.862.358-4.062 1.075-1.2.717-2.134 1.713-2.8 2.987-.666 1.273-.999 2.705-.999 4.293 0 1.61.35 3.038 1.049 4.285.699 1.246 1.66 2.203 2.882 2.87 1.222.667 2.598 1.001 4.129 1.001 2.047 0 3.716-.673 5.004-2.018h.066v1.753c0 1.17-.43 2.14-1.288 2.912-.86.772-2.07 1.158-3.634 1.158-1.068 0-2.006-.132-2.816-.397-.809-.265-1.742-.678-2.799-1.24l-.892 3.341c.925.552 1.966.976 3.122 1.274 1.156.298 2.356.447 3.6.447zm.132-10.72c-1.365 0-2.491-.434-3.377-1.3-.887-.865-1.33-2.026-1.33-3.482 0-1.4.435-2.542 1.305-3.425.87-.882 2.004-1.323 3.402-1.323 1.332 0 2.442.435 3.328 1.307.886.871 1.33 2.002 1.33 3.391 0 1.401-.433 2.556-1.297 3.466-.864.91-1.985 1.365-3.361 1.365zm19.086 4.036c1.542 0 2.899-.281 4.071-.844 1.173-.562 2.133-1.323 2.882-2.283l-2.642-2.266c-1.035 1.301-2.406 1.952-4.113 1.952-1.21 0-2.237-.337-3.08-1.01-.842-.672-1.384-1.593-1.627-2.762h12.024c.066-.397.099-.9.099-1.506 0-1.599-.325-3.027-.975-4.285a7.198 7.198 0 00-2.807-2.961c-1.222-.717-2.632-1.075-4.228-1.075a8.191 8.191 0 00-3.188.62c-.99.414-1.844.99-2.56 1.729-.715.739-1.277 1.638-1.684 2.696-.407 1.06-.611 2.212-.611 3.458 0 1.688.369 3.185 1.106 4.492.738 1.307 1.746 2.308 3.023 3.003 1.277.695 2.714 1.042 4.31 1.042zm3.815-10.274h-8.257c.264-1.059.776-1.878 1.535-2.457.76-.579 1.663-.868 2.709-.868 1.057 0 1.93.298 2.618.893.688.596 1.153 1.406 1.395 2.432z"></path>
      <g fill="#F3603C">
        <path d="M2.786 10.286c1.538 0 2.785 1.279 2.785 2.857C5.571 14.72 4.324 16 2.786 16 1.247 16 0 14.72 0 13.143c0-1.578 1.247-2.857 2.786-2.857zM2.786 0C4.324 0 5.57 1.28 5.57 2.857c0 1.578-1.247 2.857-2.785 2.857C1.247 5.714 0 4.435 0 2.857 0 1.28 1.247 0 2.786 0zm10.028 0C14.353 0 15.6 1.28 15.6 2.857c0 1.578-1.247 2.857-2.786 2.857-1.538 0-2.785-1.279-2.785-2.857C10.029 1.28 11.276 0 12.814 0z"></path>
        <ellipse cx="12.814" cy="13.257" opacity=".5" rx="2.786" ry="2.857"></ellipse>
      </g>
    </g>
  </symbol>
</svg>

<svg width="417.3" height="71.93032871835787" viewBox="0 0 370.1851851851852 63.80911108803392" class="css-1j8o68f">
   <defs id="SvgjsDefs1693"></defs>
   <g id="SvgjsG1694" featurekey="symbolFeature-0" transform="matrix(21.398091441995412,0,0,21.398091441995412,-21.077120376467633,-21.590673060971568)" fill="#3fc1c9">
      <g xmlns="http://www.w3.org/2000/svg">
         <g>
            <polygon fill="#3fc1c9" points="2.179,1.009 0.989,2.171 1.872,3.302 2.465,3.292 3.062,2.759 2.767,2.428 2.292,2.852     2.085,2.856 1.583,2.211 2.358,1.453 3.225,1.453 4.014,2.49 4.014,1.759 3.443,1.009   "></polygon>
         </g>
         <g>
            <polygon fill="#3fc1c9" points="2.544,1.708 1.947,2.242 2.242,2.571 2.717,2.148 2.923,2.145 3.426,2.79 2.649,3.547     1.784,3.547 0.985,2.499 0.985,3.23 1.565,3.991 2.83,3.991 4.014,2.833 4.014,2.824 3.137,1.697   "></polygon>
         </g>
      </g>
   </g>
   <g id="SvgjsG1695" featurekey="nameFeature-0" transform="matrix(1.356467704842914,0,0,1.356467704842914,82.50551962010393,-8.022087896686516)" fill="#f5f5f5">
      <path d="M4.8 29.96 c0 2.8 1.16 5.24 3.36 6.68 c1.12 0.76 2.4 1.12 3.84 1.12 c1.68 0 3.16 -0.56 4.08 -1.24 c0.44 -0.32 0.84 -0.72 1.24 -1.2 c0.72 -0.96 1.04 -1.6 1.32 -2.32 l2.68 0.88 c-0.44 1.56 -1.52 3.08 -3.04 4.32 c-1.52 1.28 -3.84 2.16 -6.32 2.16 c-5.68 0.08 -10.2 -4.36 -10.12 -10.24 c0 -1.96 0.48 -3.72 1.4 -5.32 s2.16 -2.84 3.72 -3.72 s3.24 -1.32 5.12 -1.32 c2.24 0 4.24 0.64 5.92 1.84 c1.72 1.28 2.8 2.76 3.2 4.52 l-2.64 0.88 c-0.44 -1.6 -2.48 -4.64 -6.56 -4.64 c-2.08 0 -3.8 0.72 -5.16 2.2 s-2.04 3.28 -2.04 5.4 z M26.16 20.12 l2.84 0 l0 3.92 c0.96 -1.96 2.56 -3.28 4.08 -3.84 c0.76 -0.28 1.56 -0.4 2.36 -0.4 c0.44 0 0.76 0 0.96 0.08 l0 3.08 c-0.32 -0.08 -0.72 -0.08 -1.12 -0.08 c-4.72 0 -6.2 3.88 -6.2 7.4 l0 9.72 l-2.92 0 l0 -19.88 z M44.879999999999995 49.8 l-3.16 0 l5.16 -11.16 l-9.04 -18.52 l3.32 0 l7.28 15.36 l6.92 -15.36 l3.12 0 z M82.36 30.04 c0 3.6 -1.56 6.84 -4.44 8.8 c-1.44 0.96 -3.08 1.44 -4.92 1.44 c-3.24 0 -5.8 -1.44 -7.64 -4.36 l0 13.88 l-2.92 0 l0 -29.68 l2.84 0 l0 4.32 c2.04 -3.12 4.6 -4.68 7.72 -4.68 c2.76 0 5.24 1.24 6.84 3.2 c1.56 1.92 2.52 4.48 2.52 7.08 z M72.44 37.76 c2.12 0 3.8 -0.76 5.08 -2.2 c1.24 -1.48 1.88 -3.28 1.88 -5.44 c0 -2.8 -1.08 -5.24 -3.24 -6.68 c-1.04 -0.72 -2.32 -1.08 -3.72 -1.08 c-4.04 -0.08 -7.24 3.68 -7.12 7.64 c0 2.08 0.64 3.92 2 5.44 c1.36 1.56 3.04 2.32 5.12 2.32 z M94.43999999999998 40.16 c-4.32 0 -5.64 -2.4 -5.64 -5.32 l0 -12.16 l-3.68 0 l0 -2.56 l3.68 0 l0 -5.72 l2.88 0 l0 5.72 l5.04 0 l0 2.56 l-5.04 0 l0 12.12 c0 1.84 1.08 2.8 3.24 2.8 c0.68 0 1.28 -0.08 1.8 -0.16 l0 2.4 c-0.64 0.2 -1.4 0.32 -2.28 0.32 z M109.32 12.16 c-0.8 0 -1.52 0.24 -2.2 0.8 c-0.68 0.6 -1.12 1.8 -1.12 3.4 l0 3.76 l5.2 0 l0 2.52 l-5.2 0 l0 17.36 l-2.88 0 l0 -17.36 l-3.84 0 l0 -2.52 l3.84 0 l0 -3.68 c0 -2.24 0.56 -3.92 1.64 -5.12 c1.12 -1.16 2.6 -1.72 4.44 -1.72 c0.76 0 1.48 0.12 2.16 0.36 l0 2.44 c-0.48 -0.16 -1.2 -0.24 -2.04 -0.24 z M123.88 40.36 c-1.84 0 -3.6 -0.48 -5.16 -1.36 c-1.56 -0.92 -2.8 -2.16 -3.68 -3.72 c-0.92 -1.56 -1.36 -3.28 -1.36 -5.16 c0 -2.92 0.96 -5.4 2.96 -7.36 c1.96 -2 4.4 -3 7.32 -3 c5.64 -0.12 10.36 4.64 10.28 10.24 c0.08 5.76 -4.64 10.48 -10.36 10.36 z M123.96 37.76 c2.08 0 3.84 -0.76 5.24 -2.24 c1.36 -1.48 2.04 -3.28 2.04 -5.4 s-0.68 -3.96 -2.08 -5.52 c-1.4 -1.52 -3.12 -2.28 -5.28 -2.28 c-2.08 0 -3.84 0.76 -5.2 2.24 s-2.04 3.28 -2.04 5.44 c-0.08 4.12 3.08 7.84 7.32 7.76 z M139.32 20.12 l2.84 0 l0 3.92 c0.96 -1.96 2.56 -3.28 4.08 -3.84 c0.76 -0.28 1.56 -0.4 2.36 -0.4 c0.44 0 0.76 0 0.96 0.08 l0 3.08 c-0.32 -0.08 -0.72 -0.08 -1.12 -0.08 c-4.72 0 -6.2 3.88 -6.2 7.4 l0 9.72 l-2.92 0 l0 -19.88 z M155 29.96 c0 2.8 1.16 5.24 3.36 6.68 c1.12 0.76 2.4 1.12 3.84 1.12 c1.68 0 3.16 -0.56 4.08 -1.24 c0.44 -0.32 0.84 -0.72 1.24 -1.2 c0.72 -0.96 1.04 -1.6 1.32 -2.32 l2.68 0.88 c-0.44 1.56 -1.52 3.08 -3.04 4.32 c-1.52 1.28 -3.84 2.16 -6.32 2.16 c-5.68 0.08 -10.2 -4.36 -10.12 -10.24 c0 -1.96 0.48 -3.72 1.4 -5.32 s2.16 -2.84 3.72 -3.72 s3.24 -1.32 5.12 -1.32 c2.24 0 4.24 0.64 5.92 1.84 c1.72 1.28 2.8 2.76 3.2 4.52 l-2.64 0.88 c-0.44 -1.6 -2.48 -4.64 -6.56 -4.64 c-2.08 0 -3.8 0.72 -5.16 2.2 s-2.04 3.28 -2.04 5.4 z M193.92 30.96 l-16.08 0 c0.12 1.96 0.84 3.56 2.2 4.84 c1.36 1.32 3 1.96 4.92 1.96 c3 0 5.24 -1.48 6.16 -4.24 l2.56 0.8 c-0.56 1.88 -1.64 3.36 -3.24 4.44 c-1.6 1.04 -3.4 1.6 -5.44 1.6 c-1.88 0 -3.6 -0.48 -5.16 -1.4 s-2.76 -2.16 -3.6 -3.76 c-0.88 -1.56 -1.32 -3.28 -1.32 -5.16 c0 -1.8 0.4 -3.48 1.24 -5.04 c0.8 -1.6 1.96 -2.84 3.48 -3.8 c1.48 -0.96 3.16 -1.44 4.96 -1.44 c1.96 0 3.68 0.44 5.12 1.36 c1.44 0.88 2.52 2.12 3.2 3.64 c0.72 1.52 1.04 3.24 1.04 5.24 c0 0.2 0 0.52 -0.04 0.96 z M177.88 28.48 l13.16 0 c-0.2 -1.84 -0.88 -3.32 -2 -4.48 c-1.12 -1.12 -2.6 -1.68 -4.44 -1.68 c-1.72 0 -3.16 0.6 -4.44 1.8 c-1.28 1.24 -2.04 2.68 -2.28 4.36 z M212.07999999999998 34.36 c0 1.76 -0.68 3.2 -2.04 4.28 c-1.36 1.12 -3.04 1.68 -5 1.68 c-3.2 0 -5.28 -1.32 -6.36 -2.88 c-0.8 -1.08 -1.08 -2.04 -1.2 -3.04 l2.64 -0.68 c0.32 1.84 1.72 4.08 4.88 4.08 c1.12 0 2.08 -0.32 2.92 -0.92 c0.8 -0.56 1.2 -1.36 1.2 -2.36 c0 -0.8 -0.32 -1.44 -0.96 -1.92 c-0.64 -0.52 -1.4 -0.84 -2.28 -1.04 l-3.04 -0.68 c-3.28 -0.72 -4.96 -2.48 -4.96 -5.2 c0 -2.04 1.04 -3.72 2.48 -4.6 c1.4 -0.88 2.92 -1.32 4.28 -1.32 c3 0.04 4.92 1.2 5.96 2.64 c0.72 1 1.04 1.84 1.2 2.68 l-2.64 0.76 c-0.2 -0.8 -0.52 -1.44 -1.16 -2.24 c-0.68 -0.8 -1.88 -1.28 -3.36 -1.28 c-1.08 0 -1.96 0.28 -2.72 0.92 c-0.76 0.6 -1.12 1.36 -1.12 2.24 c0 1.56 1.12 2.28 2.88 2.72 l3.2 0.72 c2.6 0.6 5.2 2.24 5.2 5.44 z"></path>
   </g>
</svg>